<svg xmlns="http://www.w3.org/2000/svg" width="32" height="32" viewBox="0 0 32 32" shape-rendering="crispEdges">
  <rect x="8" y="2" width="12" height="2" fill="#6b3f2a" />
  <rect x="6" y="4" width="16" height="2" fill="#6b3f2a" />
  <rect x="6" y="6" width="12" height="2" fill="#6b3f2a" />
  <rect x="4" y="8" width="12" height="2" fill="#6b3f2a" />
  <rect x="4" y="10" width="6" height="2" fill="#6b3f2a" />
  <rect x="4" y="12" width="4" height="2" fill="#6b3f2a" />

  <rect x="18" y="6" width="4" height="2" fill="#f2c29b" />
  <rect x="16" y="8" width="8" height="2" fill="#f2c29b" />
  <rect x="12" y="10" width="4" height="2" fill="#f2c29b" />
  <rect x="18" y="10" width="4" height="2" fill="#f2c29b" />
  <rect x="16" y="10" width="2" height="2" fill="#0b1020" />

  <rect x="14" y="12" width="10" height="2" fill="#e24646" />
  <rect x="8" y="14" width="4" height="2" fill="#e24646" />
  <rect x="22" y="14" width="2" height="2" fill="#e24646" />
  <rect x="8" y="16" width="2" height="2" fill="#e24646" />

  <rect x="12" y="14" width="10" height="2" fill="#2d62ff" />
  <rect x="10" y="16" width="2" height="2" fill="#2d62ff" />
  <rect x="12" y="16" width="2" height="2" fill="#ffd60a" />
  <rect x="14" y="16" width="6" height="2" fill="#2d62ff" />
  <rect x="20" y="16" width="2" height="2" fill="#ffd60a" />
  <rect x="22" y="16" width="2" height="2" fill="#2d62ff" />
  <rect x="10" y="18" width="14" height="2" fill="#2d62ff" />
  <rect x="10" y="20" width="14" height="2" fill="#2d62ff" />

  <rect x="10" y="22" width="6" height="2" fill="#2d62ff" />
  <rect x="18" y="22" width="6" height="2" fill="#2d62ff" />
  <rect x="10" y="24" width="4" height="2" fill="#2d62ff" />
  <rect x="20" y="24" width="4" height="2" fill="#2d62ff" />

  <rect x="8" y="26" width="6" height="2" fill="#0b1020" />
  <rect x="20" y="26" width="6" height="2" fill="#0b1020" />
  <rect x="8" y="28" width="8" height="2" fill="#0b1020" />
  <rect x="20" y="28" width="8" height="2" fill="#0b1020" />
</svg>
