<svg xmlns="http://www.w3.org/2000/svg" width="32" height="32" viewBox="0 0 32 32">
  <path d="M16 29 C23 29 27 24 27 18 C27 13 24 10 20 7 C19 10 17 12 14 13 C14 9 12 6 9 4 C8 7 6 10 6 15 C6 23 10 29 16 29 Z" fill="#ff8a2a" />
  <path d="M16 26 C20.6 26 23.3 22.7 23.3 18.7 C23.3 15.6 21.6 13.4 19.2 11.5 C18.6 13.6 17.1 15.1 15.1 16 C15.1 13.7 13.9 11.6 12.1 10.1 C11.4 11.9 10.7 13.8 10.7 16.9 C10.7 22.1 12.9 26 16 26 Z" fill="#ffcf5a" />
  <path d="M16 23 C18.8 23 20.4 21 20.4 18.6 C20.4 16.8 19.3 15.4 17.9 14.2 C17.5 15.4 16.6 16.3 15.5 16.8 C15.5 15.5 14.8 14.3 13.9 13.4 C13.5 14.4 13 15.6 13 17.5 C13 20.7 14.3 23 16 23 Z" fill="#fff0ac" />
</svg>
