<svg xmlns="http://www.w3.org/2000/svg" width="32" height="32" viewBox="0 0 32 32">
  <defs>
    <radialGradient id="forgeGlow" cx="50%" cy="48%" r="58%">
      <stop offset="0" stop-color="#ffd48a" stop-opacity="0.92" />
      <stop offset="0.58" stop-color="#ff7a3a" stop-opacity="0.58" />
      <stop offset="1" stop-color="#240e08" stop-opacity="0" />
    </radialGradient>
    <linearGradient id="ringGrad" x1="0" y1="0" x2="1" y2="1">
      <stop offset="0" stop-color="#fff0d2" />
      <stop offset="0.42" stop-color="#ffbe74" />
      <stop offset="1" stop-color="#d24b1d" />
    </linearGradient>
    <linearGradient id="coreGrad" x1="0" y1="0" x2="0" y2="1">
      <stop offset="0" stop-color="#fff9d8" />
      <stop offset="0.33" stop-color="#ffd26a" />
      <stop offset="0.7" stop-color="#ff8b2d" />
      <stop offset="1" stop-color="#cf3515" />
    </linearGradient>
    <linearGradient id="facetGrad" x1="0" y1="0" x2="1" y2="1">
      <stop offset="0" stop-color="#ffecc3" stop-opacity="0.92" />
      <stop offset="1" stop-color="#ff7f2a" stop-opacity="0.2" />
    </linearGradient>
  </defs>

  <rect x="0" y="0" width="32" height="32" fill="#000" opacity="0" />

  <circle cx="16" cy="16" r="14" fill="url(#forgeGlow)" />

  <circle cx="16" cy="16" r="9.8" fill="#2a1310" stroke="#110705" stroke-width="1.6" />
  <circle cx="16" cy="16" r="8.3" fill="none" stroke="url(#ringGrad)" stroke-width="2.2" />

  <path d="M16 8.3 L21.9 11.7 L21.9 18.4 L16 21.8 L10.1 18.4 L10.1 11.7 Z" fill="url(#coreGrad)" stroke="#53170d" stroke-width="1" />

  <path d="M16 10.2 L20.3 12.7 L20.3 17.4 L16 19.9 L11.7 17.4 L11.7 12.7 Z" fill="url(#facetGrad)" />

  <path d="M16 10.2 V19.9" stroke="#8f2a16" stroke-width="0.9" opacity="0.75" />
  <path d="M11.7 12.7 L20.3 17.4" stroke="#8f2a16" stroke-width="0.9" opacity="0.45" />
  <path d="M20.3 12.7 L11.7 17.4" stroke="#8f2a16" stroke-width="0.9" opacity="0.45" />

  <circle cx="14.3" cy="13.6" r="1.5" fill="#fff4ce" opacity="0.75" />
  <path d="M13.5 23.8 C14.7 24.7 17.1 24.7 18.5 23.8" stroke="#fff1cc" stroke-width="1.1" stroke-linecap="round" opacity="0.7" />

  <path d="M6.4 9.9 L7.5 12.1 L9.8 12.4 L8.1 14.1 L8.5 16.4 L6.4 15.3 L4.3 16.4 L4.7 14.1 L3 12.4 L5.3 12.1 Z" fill="#ffd66f" stroke="#ffea9b" stroke-width="0.45" opacity="0.9" />
  <path d="M25.6 5.8 L26.5 7.5 L28.4 7.8 L27 9.2 L27.3 11.1 L25.6 10.2 L23.9 11.1 L24.2 9.2 L22.8 7.8 L24.7 7.5 Z" fill="#ffd66f" stroke="#ffea9b" stroke-width="0.4" opacity="0.8" />
  <path d="M25.6 20.9 L26.5 22.6 L28.4 22.9 L27 24.3 L27.3 26.2 L25.6 25.3 L23.9 26.2 L24.2 24.3 L22.8 22.9 L24.7 22.6 Z" fill="#ffd66f" stroke="#ffea9b" stroke-width="0.4" opacity="0.82" />
</svg>
