<svg xmlns="http://www.w3.org/2000/svg" width="32" height="32" viewBox="0 0 32 32">
  <rect x="0" y="16" width="32" height="16" fill="#f25b1d" />
  <rect x="0" y="20" width="32" height="12" fill="#cf2e13" />
  <path d="M0 17 C3 14 5 14 8 17 C11 20 13 20 16 17 C19 14 21 14 24 17 C27 20 29 20 32 17" fill="none" stroke="#ffbf54" stroke-width="2" stroke-linecap="round" />
  <path d="M0 22 C3 19 5 19 8 22 C11 25 13 25 16 22 C19 19 21 19 24 22 C27 25 29 25 32 22" fill="none" stroke="#ff7f2f" stroke-width="2" stroke-linecap="round" opacity="0.8" />
  <circle cx="8" cy="27" r="1.2" fill="#ffdb7a" opacity="0.8" />
  <circle cx="17" cy="29" r="1.3" fill="#ffdb7a" opacity="0.8" />
  <circle cx="25" cy="26" r="1.1" fill="#ffdb7a" opacity="0.7" />
</svg>
