<svg xmlns="http://www.w3.org/2000/svg" width="32" height="32" viewBox="0 0 32 32">
  <defs>
    <linearGradient id="forgeBlock" x1="0" y1="0" x2="0" y2="1">
      <stop offset="0" stop-color="#ffd497" />
      <stop offset="0.46" stop-color="#ff9a4c" />
      <stop offset="1" stop-color="#c43a16" />
    </linearGradient>
    <linearGradient id="forgeBevel" x1="0" y1="0" x2="1" y2="1">
      <stop offset="0" stop-color="#fff4d7" stop-opacity="0.9" />
      <stop offset="1" stop-color="#7f220f" stop-opacity="0.3" />
    </linearGradient>
  </defs>

  <rect x="1.5" y="1.5" width="29" height="29" rx="4" fill="url(#forgeBlock)" stroke="#6c2010" stroke-width="3" />
  <rect x="4.7" y="4.7" width="22.6" height="22.6" rx="2.7" fill="url(#forgeBevel)" opacity="0.46" />

  <path d="M9.8 10.8 H22.2" stroke="#6e2413" stroke-width="1.8" opacity="0.46" />
  <path d="M9.8 21.6 H22.2" stroke="#6e2413" stroke-width="1.8" opacity="0.44" />

  <path d="M16 9.2 C19.2 9.2 21.2 11 21.2 13.2 C21.2 15.3 18.3 16 18.3 17.8 V18.7" fill="none" stroke="#2a0e08" stroke-width="2.8" stroke-linecap="round" />
  <circle cx="18.2" cy="22.6" r="1.8" fill="#2a0e08" />

  <path d="M6.2 15.8 H25.8" stroke="#fff7e5" stroke-width="1.7" opacity="0.3" />

  <path d="M7.1 7.1 L8.1 9.1 L10.2 9.4 L8.7 10.9 L9 13 L7.1 12 L5.2 13 L5.5 10.9 L4 9.4 L6.1 9.1 Z" fill="#ffeaa7" stroke="#fff2c2" stroke-width="0.35" opacity="0.75" />
  <path d="M24.9 19 L25.7 20.6 L27.5 20.9 L26.2 22.2 L26.5 24 L24.9 23.2 L23.3 24 L23.6 22.2 L22.3 20.9 L24.1 20.6 Z" fill="#ffeaa7" stroke="#fff2c2" stroke-width="0.35" opacity="0.74" />
</svg>
