<svg xmlns="http://www.w3.org/2000/svg" width="32" height="32" viewBox="0 0 32 32">
  <defs>
    <linearGradient id="sandBlock" x1="0" y1="0" x2="0" y2="1">
      <stop offset="0" stop-color="#f9da97" />
      <stop offset="0.5" stop-color="#e8b868" />
      <stop offset="1" stop-color="#b97f36" />
    </linearGradient>
    <linearGradient id="sandBevel" x1="0" y1="0" x2="1" y2="1">
      <stop offset="0" stop-color="#fff7de" stop-opacity="0.9" />
      <stop offset="1" stop-color="#7d5320" stop-opacity="0.28" />
    </linearGradient>
  </defs>

  <rect x="1.5" y="1.5" width="29" height="29" rx="4" fill="url(#sandBlock)" stroke="#744819" stroke-width="3" />
  <rect x="4.8" y="4.8" width="22.4" height="22.4" rx="2.8" fill="url(#sandBevel)" opacity="0.46" />

  <path d="M9.6 10.8 H22.4" stroke="#7b5324" stroke-width="1.7" opacity="0.5" />
  <path d="M9.6 21.6 H22.4" stroke="#7b5324" stroke-width="1.7" opacity="0.46" />

  <path d="M15.8 9.3 C19 9.3 21.1 11.1 21.1 13.4 C21.1 15.4 18.2 16.1 18.2 18 V18.8" fill="none" stroke="#321f0d" stroke-width="2.8" stroke-linecap="round" />
  <circle cx="18.1" cy="22.7" r="1.8" fill="#321f0d" />

  <path d="M6.1 15.7 H25.9" stroke="#fff6de" stroke-width="1.6" opacity="0.3" />

  <path d="M7.4 6.8 L8.5 9.1 L10.9 9.4 L9.1 11.2 L9.5 13.6 L7.4 12.5 L5.3 13.6 L5.7 11.2 L3.9 9.4 L6.3 9.1 Z" fill="#ffe8aa" stroke="#fff4cc" stroke-width="0.35" opacity="0.76" />
  <path d="M24.7 19.1 L25.5 20.8 L27.4 21.1 L26 22.5 L26.3 24.4 L24.7 23.6 L23.1 24.4 L23.4 22.5 L22 21.1 L23.9 20.8 Z" fill="#ffe8aa" stroke="#fff4cc" stroke-width="0.35" opacity="0.74" />
</svg>
