<svg xmlns="http://www.w3.org/2000/svg" width="32" height="32" viewBox="0 0 32 32">
  <rect x="3" y="14" width="5" height="8" rx="2.5" fill="#4d7dff" />
  <rect x="24" y="14" width="5" height="8" rx="2.5" fill="#4d7dff" />
  <rect x="5.2" y="17" width="1.6" height="4" rx="0.8" fill="#101726" />
  <rect x="25.2" y="17" width="1.6" height="4" rx="0.8" fill="#101726" />

  <rect x="10" y="25" width="4" height="7" rx="1.8" fill="#101726" />
  <rect x="18" y="25" width="4" height="7" rx="1.8" fill="#101726" />
  <rect x="9" y="30.5" width="6" height="1.5" rx="0.75" fill="#0b1020" />
  <rect x="17" y="30.5" width="6" height="1.5" rx="0.75" fill="#0b1020" />

  <rect x="6" y="8" width="20" height="18" rx="4" fill="#2d62ff" />
  <rect x="7" y="9" width="18" height="16" rx="3" fill="#4d7dff" opacity="0.92" />

  <path d="M12 12.5 L15 14.5" stroke="#0b1020" stroke-width="2" stroke-linecap="round" />
  <path d="M20 12.5 L17 14.5" stroke="#0b1020" stroke-width="2" stroke-linecap="round" />

  <circle cx="13" cy="16" r="2" fill="#0b1020" />
  <circle cx="19" cy="16" r="2" fill="#0b1020" />
  <circle cx="12.6" cy="15.6" r="0.7" fill="#e6edf3" />
  <circle cx="18.6" cy="15.6" r="0.7" fill="#e6edf3" />

  <path d="M12 22.8 Q16 19 20 22.8" stroke="#0b1020" stroke-width="2" fill="none" stroke-linecap="round" />
</svg>
