<svg xmlns="http://www.w3.org/2000/svg" width="64" height="48" viewBox="0 0 64 48">
  <ellipse cx="32" cy="30" rx="26" ry="10" fill="#9aa7b4" />
  <ellipse cx="32" cy="28" rx="26" ry="10" fill="#c4ced8" opacity="0.9" />
  <ellipse cx="32" cy="28" rx="24" ry="8" fill="#aab6c2" opacity="0.9" />

  <path d="M20 20 C24 10 40 10 44 20" fill="#79c9ff" opacity="0.8" />
  <path d="M22 20 C26 13 38 13 42 20" fill="none" stroke="#4aa6ff" stroke-width="2" opacity="0.8" />

  <rect x="20" y="23" width="24" height="14" rx="5" fill="#e24646" />
  <rect x="21" y="24" width="22" height="12" rx="4" fill="#ff6464" opacity="0.9" />

  <path d="M26 25 L30 27" stroke="#0b1020" stroke-width="2.5" stroke-linecap="round" />
  <path d="M38 25 L34 27" stroke="#0b1020" stroke-width="2.5" stroke-linecap="round" />
  <circle cx="28" cy="29" r="2.2" fill="#0b1020" />
  <circle cx="36" cy="29" r="2.2" fill="#0b1020" />
  <path d="M26 35 Q32 30 38 35" stroke="#0b1020" stroke-width="2.6" fill="none" stroke-linecap="round" />

  <circle cx="14" cy="30" r="2" fill="#ffd60a" />
  <circle cx="50" cy="30" r="2" fill="#ffd60a" />
</svg>
